<svg width="158" height="158" viewBox="0 0 158 158" fill="none" xmlns="http://www.w3.org/2000/svg">
<path d="M78.8997 157.799C122.475 157.799 157.799 122.475 157.799 78.8997C157.799 35.3246 122.475 0 78.8997 0C35.3246 0 0 35.3246 0 78.8997C0 122.475 35.3246 157.799 78.8997 157.799Z" fill="#6D07E6"/>
<path d="M60.557 54.1C66.8883 47.7687 75.4809 44.0001 84.9779 44.0001C94.4749 44.0001 103.218 47.9195 109.399 54.1C115.73 60.4314 119.499 69.0239 119.499 78.5209C119.499 88.0179 115.579 96.7611 109.399 102.942C103.218 109.122 94.4749 113.042 84.9779 113.042C75.4809 113.042 66.7376 109.122 60.557 102.942C54.3764 96.7611 50.457 88.0179 50.457 78.5209" stroke="white" stroke-width="3.5" stroke-miterlimit="10" stroke-linecap="round" stroke-linejoin="round"/>
<path d="M84.9775 44H73.5208C54.3761 44 39 59.5268 39 78.5208C39 97.6656 54.5268 113.042 73.5208 113.042H84.9775" stroke="white" stroke-width="3.5" stroke-miterlimit="10" stroke-linecap="round" stroke-linejoin="round"/>
<path d="M90.8578 78.0685H77.4414V64.8029H90.8578C94.4757 64.8029 97.4906 67.8178 97.4906 71.4357C97.4906 75.0536 94.4757 78.0685 90.8578 78.0685Z" stroke="white" stroke-width="3.5" stroke-miterlimit="10" stroke-linecap="round" stroke-linejoin="round"/>
<path d="M93.722 91.3342H77.4414V78.0685H93.5712C97.1891 78.0685 100.204 81.0835 100.204 84.7014C100.355 88.3193 97.3399 91.3342 93.722 91.3342Z" stroke="white" stroke-width="3.5" stroke-miterlimit="10" stroke-linecap="round" stroke-linejoin="round"/>
<path d="M77.4414 59.5269V96.6104" stroke="white" stroke-width="3.5" stroke-miterlimit="10" stroke-linecap="round" stroke-linejoin="round"/>
<path d="M72.1641 64.8029H77.4402" stroke="white" stroke-width="3.5" stroke-miterlimit="10" stroke-linecap="round" stroke-linejoin="round"/>
<path d="M72.1641 91.3342H77.4402" stroke="white" stroke-width="3.5" stroke-miterlimit="10" stroke-linecap="round" stroke-linejoin="round"/>
<path d="M88.1484 96.6103V91.3342" stroke="white" stroke-width="3.5" stroke-miterlimit="10" stroke-linecap="round" stroke-linejoin="round"/>
<path d="M88.1484 64.5015V59.2253" stroke="white" stroke-width="3.5" stroke-miterlimit="10" stroke-linecap="round" stroke-linejoin="round"/>
<circle cx="20" cy="20" r="20" fill="#FFD371"/>
<path d="M20.1815 13.0787C20.8215 13.0787 21.4071 13.1747 21.9383 13.3667C22.4695 13.5523 22.9239 13.8179 23.3015 14.1635C23.6791 14.5091 23.9735 14.9251 24.1847 15.4115C24.3959 15.8979 24.5015 16.4387 24.5015 17.0339C24.5015 17.5459 24.4247 18.0195 24.2711 18.4547C24.1239 18.8899 23.9223 19.3059 23.6663 19.7027C23.4167 20.0995 23.1223 20.4835 22.7831 20.8547C22.4439 21.2259 22.0887 21.6035 21.7175 21.9875L18.5879 25.1843C18.8951 25.0947 19.1959 25.0275 19.4903 24.9827C19.7847 24.9315 20.0663 24.9059 20.3351 24.9059H23.8967C24.1527 24.9059 24.3543 24.9795 24.5015 25.1267C24.6551 25.2675 24.7319 25.4563 24.7319 25.6931V27.1139H15.2087V26.3267C15.2087 26.1667 15.2407 26.0003 15.3047 25.8275C15.3751 25.6547 15.4839 25.4947 15.6311 25.3475L19.8455 21.1235C20.1975 20.7651 20.5111 20.4227 20.7863 20.0963C21.0679 19.7699 21.3015 19.4467 21.4871 19.1267C21.6791 18.8067 21.8231 18.4835 21.9191 18.1571C22.0215 17.8243 22.0727 17.4755 22.0727 17.1107C22.0727 16.7779 22.0247 16.4867 21.9287 16.2371C21.8327 15.9811 21.6951 15.7667 21.5159 15.5939C21.3367 15.4211 21.1223 15.2931 20.8727 15.2099C20.6295 15.1203 20.3543 15.0755 20.0471 15.0755C19.4775 15.0755 19.0071 15.2195 18.6359 15.5075C18.2711 15.7955 18.0151 16.1827 17.8679 16.6691C17.7975 16.9123 17.6919 17.0883 17.5511 17.1971C17.4103 17.2995 17.2311 17.3507 17.0135 17.3507C16.9175 17.3507 16.8119 17.3411 16.6967 17.3219L15.4487 17.1011C15.5447 16.4355 15.7303 15.8531 16.0055 15.3539C16.2807 14.8483 16.6231 14.4291 17.0327 14.0963C17.4487 13.7571 17.9223 13.5043 18.4535 13.3379C18.9911 13.1651 19.5671 13.0787 20.1815 13.0787Z" fill="#373744"/>
</svg>
