<svg width="158" height="158" viewBox="0 0 158 158" fill="none" xmlns="http://www.w3.org/2000/svg">
<path d="M78.8997 157.799C122.475 157.799 157.799 122.475 157.799 78.8997C157.799 35.3246 122.475 0 78.8997 0C35.3246 0 0 35.3246 0 78.8997C0 122.475 35.3246 157.799 78.8997 157.799Z" fill="#6D07E6"/>
<path d="M101.556 55.8995C101.556 51.4811 105.171 48 109.455 48H55.8995C51.4811 48 48 51.615 48 55.8995C48 60.3179 51.615 63.799 55.8995 63.799H109.455C105.171 63.9329 101.556 60.3179 101.556 55.8995Z" stroke="white" stroke-width="3.5" stroke-miterlimit="10" stroke-linecap="round" stroke-linejoin="round"/>
<path d="M109.455 109.455H55.8995C51.4811 109.455 48 105.84 48 101.556V55.8995C48 60.3179 51.615 63.799 55.8995 63.799H109.455V109.455Z" stroke="white" stroke-width="3.5" stroke-miterlimit="10" stroke-linecap="round" stroke-linejoin="round"/>
<path d="M77.4531 79.1964H109.453V94.0581H77.4531L69.6875 86.6942L77.4531 79.1964Z" stroke="white" stroke-width="3.5" stroke-miterlimit="10" stroke-linecap="round" stroke-linejoin="round"/>
<circle cx="20" cy="20" r="20" fill="#FFD371"/>
<path d="M16.9808 25.3372H19.7936V17.2444C19.7936 16.9308 19.8032 16.6012 19.8224 16.2556L17.8256 17.926C17.7424 17.9964 17.656 18.0444 17.5664 18.07C17.4832 18.0956 17.4 18.1084 17.3168 18.1084C17.1888 18.1084 17.0704 18.0828 16.9616 18.0316C16.8592 17.974 16.7824 17.91 16.7312 17.8396L15.9824 16.8124L20.216 13.2124H22.1648V25.3372H24.6608V27.1132H16.9808V25.3372Z" fill="#373744"/>
</svg>
