<svg width="330" height="382" viewBox="0 0 330 382" fill="none" xmlns="http://www.w3.org/2000/svg">
<mask id="mask0" mask-type="alpha" maskUnits="userSpaceOnUse" x="0" y="0" width="330" height="382">
<rect width="330" height="382" fill="#C4C4C4"/>
</mask>
<g mask="url(#mask0)">
<g filter="url(#filter0_d)">
<g filter="url(#filter1_d)">
<path d="M209.72 65.6184C231.845 93.4062 230.303 128.717 207.692 148.158C205.989 149.643 203.883 151.362 201.638 152.778C173.158 170.75 131.424 161.902 106.582 130.701C80.8936 98.4378 86.182 61.5128 114.663 43.5408C143.144 25.5688 185.702 35.4533 209.72 65.6184Z" fill="url(#paint0_linear)"/>
</g>
<g filter="url(#filter2_f)">
<g filter="url(#filter3_d)">
<path d="M212.87 72.6486C235.484 101.051 233.908 137.143 210.797 157.014C209.056 158.532 206.904 160.289 204.61 161.737C175.499 180.106 132.842 171.063 107.45 139.171C81.1936 106.194 86.5991 68.4522 115.71 50.0826C144.821 31.713 188.321 41.8161 212.87 72.6486Z" fill="url(#paint1_linear)"/>
</g>
<ellipse rx="59.5195" ry="72.6594" transform="matrix(0.845702 -0.533656 0.622884 0.782315 160.676 105.845)" fill="url(#paint2_linear)"/>
</g>
<ellipse rx="56.7665" ry="69.2987" transform="matrix(0.845702 -0.533656 0.622884 0.782315 161.907 95.904)" fill="url(#paint3_linear)"/>
<path d="M177.034 83.1642C177.01 84.0453 176.935 84.8426 176.715 85.6258C176.373 86.8287 175.758 87.8731 174.896 88.7729C174.544 89.1412 174.155 89.4676 173.752 89.7799C173.541 89.9431 173.321 90.1016 173.147 90.3114C173.138 90.3254 173.147 90.386 173.156 90.386C173.288 90.4233 173.414 90.4606 173.55 90.4839C174.052 90.5772 174.554 90.6658 175.051 90.759C177.02 91.132 178.773 91.9572 180.315 93.23C182.092 94.6893 183.358 96.5076 184.169 98.6429C184.483 99.4682 184.727 100.312 184.868 101.184C184.994 101.953 185.036 102.727 184.966 103.501C184.858 104.765 184.493 105.953 183.893 107.077C183.039 108.676 181.811 109.907 180.212 110.774C179.514 111.156 178.782 111.464 178.028 111.707C177.929 111.739 177.826 111.767 177.727 111.805C177.671 111.823 177.615 111.851 177.563 111.874C177.404 111.958 177.32 112.117 177.362 112.285C177.399 112.429 177.446 112.569 177.493 112.714C177.901 113.912 178.309 115.115 178.712 116.313C178.965 117.059 179.218 117.81 179.472 118.56C179.504 118.658 179.532 118.761 179.561 118.859C179.57 118.896 179.537 118.943 179.49 118.952C179.284 118.984 179.078 119.022 178.871 119.05C178.384 119.124 177.896 119.199 177.404 119.274C176.916 119.348 176.429 119.423 175.937 119.493C175.627 119.539 175.313 119.591 175.004 119.633C174.854 119.656 174.708 119.674 174.558 119.688C174.399 119.702 174.357 119.674 174.291 119.516C174.225 119.348 174.164 119.18 174.103 119.012C173.522 117.287 172.941 115.567 172.359 113.842C172.313 113.702 172.261 113.562 172.195 113.427C172.097 113.222 171.909 113.129 171.675 113.166C171.572 113.185 171.469 113.213 171.366 113.227C170.728 113.32 170.09 113.413 169.453 113.511C169.364 113.525 169.275 113.544 169.19 113.562C168.96 113.609 168.9 113.679 168.975 113.945C169.007 114.061 169.05 114.168 169.087 114.285C169.715 116.164 170.348 118.043 170.976 119.926C171 119.996 171.019 120.071 171.028 120.141C171.033 120.164 171.009 120.201 170.986 120.211C170.915 120.239 170.845 120.262 170.77 120.276C170.311 120.346 169.851 120.411 169.392 120.481C168.871 120.56 168.356 120.64 167.835 120.714C167.362 120.784 166.888 120.854 166.415 120.929C166.265 120.952 166.119 120.975 165.969 120.999C165.908 121.008 165.843 120.971 165.824 120.919C165.787 120.821 165.749 120.723 165.716 120.626C165.477 119.922 165.238 119.213 164.999 118.509C164.605 117.353 164.211 116.196 163.817 115.036C163.766 114.882 163.7 114.732 163.635 114.579C163.602 114.504 163.532 114.471 163.457 114.462C163.381 114.453 163.306 114.453 163.231 114.462C162.875 114.509 162.519 114.555 162.163 114.607C161.628 114.686 161.098 114.765 160.564 114.849C160.076 114.924 159.589 114.998 159.096 115.073C158.623 115.143 158.149 115.213 157.676 115.287C157.156 115.367 156.64 115.446 156.119 115.52C155.66 115.59 155.201 115.66 154.741 115.73C154.221 115.809 153.705 115.884 153.185 115.959C153.096 115.973 153.006 115.987 152.917 115.991C152.786 115.996 152.683 115.931 152.627 115.819C152.57 115.712 152.528 115.6 152.491 115.488C151.97 113.949 151.45 112.411 150.925 110.872C150.883 110.746 150.845 110.616 150.84 110.48C150.836 110.42 150.897 110.317 150.958 110.303C151.103 110.266 151.248 110.229 151.394 110.205C151.806 110.135 152.223 110.08 152.636 110.005C152.903 109.958 153.161 109.893 153.424 109.828C153.616 109.781 153.794 109.707 153.958 109.599C154.268 109.403 154.446 109.124 154.483 108.755C154.511 108.457 154.488 108.163 154.418 107.87C154.272 107.277 154.089 106.695 153.893 106.112C152.945 103.268 151.98 100.433 151.019 97.5939C149.593 93.4025 148.173 89.2111 146.752 85.0151C146.443 84.0966 146.124 83.1828 145.763 82.283C145.669 82.0452 145.557 81.8214 145.407 81.6163C145.111 81.22 144.741 80.9356 144.263 80.7911C144.071 80.7351 143.878 80.7118 143.686 80.7165C143.297 80.7211 142.908 80.7351 142.519 80.7911C142.088 80.8517 141.656 80.9076 141.23 80.9869C141.005 81.0288 140.822 80.9263 140.723 80.7071C140.658 80.5579 140.606 80.3994 140.55 80.2456C140.128 79.0054 139.711 77.7606 139.289 76.5157C139.218 76.3059 139.143 76.0915 139.073 75.8817C139.05 75.8117 139.026 75.7418 139.012 75.6672C138.965 75.4061 139.054 75.2942 139.293 75.2523C139.603 75.1963 139.912 75.1497 140.226 75.1031C140.747 75.0238 141.262 74.9492 141.783 74.87C142.27 74.7954 142.763 74.7254 143.25 74.6508C143.752 74.5762 144.258 74.497 144.76 74.4224C145.247 74.3478 145.74 74.2778 146.227 74.2032C146.729 74.1286 147.235 74.0494 147.737 73.9748C148.224 73.9002 148.712 73.8256 149.204 73.7603C149.354 73.7417 149.5 73.7184 149.64 73.6531C149.678 73.6344 149.734 73.5505 149.725 73.5039C149.711 73.4153 149.697 73.3267 149.668 73.2428C149.495 72.7206 149.321 72.1938 149.143 71.6716C148.698 70.3569 148.248 69.0468 147.802 67.7367C147.76 67.6108 147.713 67.4849 147.681 67.3544C147.634 67.1585 147.742 67 147.948 66.9627C148.107 66.9301 148.271 66.9021 148.435 66.8835C149.237 66.7809 150.039 66.6643 150.836 66.5338C151.323 66.4545 151.811 66.3799 152.303 66.3053C152.364 66.296 152.42 66.282 152.481 66.282C152.655 66.2867 152.805 66.3473 152.889 66.5105C152.95 66.6317 153.002 66.7529 153.049 66.8788C153.635 68.6178 154.216 70.3569 154.802 72.0912C154.854 72.2451 154.905 72.4036 154.975 72.5528C155.074 72.7673 155.257 72.8558 155.491 72.8185C155.848 72.7626 156.199 72.702 156.555 72.646C156.898 72.5948 157.235 72.5481 157.577 72.4969C157.756 72.4689 157.929 72.4316 158.107 72.3943C158.173 72.3803 158.229 72.2917 158.224 72.2218C158.22 72.0866 158.173 71.9607 158.131 71.8348C157.835 70.9723 157.549 70.1144 157.254 69.2519C156.945 68.3334 156.63 67.4196 156.316 66.5012C156.26 66.3333 156.208 66.1608 156.162 65.9883C156.129 65.8671 156.204 65.7459 156.33 65.7179C156.504 65.6806 156.682 65.648 156.86 65.62C157.395 65.5361 157.924 65.4568 158.459 65.3775C158.946 65.303 159.439 65.2377 159.926 65.1631C160.236 65.1165 160.55 65.0652 160.859 65.0186C161.169 64.9719 161.319 64.9906 161.441 65.3449C161.609 65.8391 161.783 66.3287 161.952 66.8229C162.439 68.2635 162.922 69.7041 163.41 71.1448C163.452 71.2707 163.494 71.4012 163.555 71.5224C163.663 71.7416 163.846 71.8581 164.089 71.8674C164.211 71.8721 164.329 71.8721 164.45 71.8674C165.097 71.8535 165.74 71.8954 166.377 71.984C167.601 72.1565 168.778 72.4875 169.903 72.9957C170.794 73.3967 171.642 73.8722 172.42 74.4597C173.189 75.0425 173.864 75.7138 174.464 76.4691C175.322 77.5554 176.026 78.7257 176.485 80.0358C176.776 80.8703 176.973 81.7235 177.015 82.6093C177.01 82.8191 177.024 83.0289 177.034 83.1642ZM167.709 94.8618C167.081 94.8432 166.396 94.9457 165.707 95.0063C165.44 95.0297 165.168 95.0576 164.9 95.0903C164.572 95.1322 164.249 95.1789 163.921 95.2301C163.433 95.3001 162.941 95.37 162.453 95.4446C161.905 95.5285 161.356 95.6124 160.812 95.6964C160.648 95.7197 160.489 95.7477 160.325 95.7803C160.198 95.8036 160.128 95.9248 160.165 96.0554C160.198 96.1719 160.236 96.2838 160.278 96.3957C160.353 96.6195 160.433 96.8479 160.512 97.0717C161.323 99.4402 162.134 101.809 162.941 104.182C163.091 104.62 163.241 105.058 163.391 105.492C163.503 105.818 163.635 106.131 163.803 106.434C163.893 106.592 163.991 106.741 164.118 106.867C164.296 107.044 164.502 107.152 164.755 107.156C164.877 107.161 164.994 107.156 165.116 107.156C165.491 107.152 165.862 107.11 166.237 107.063C166.579 107.021 166.921 106.988 167.263 106.932C167.751 106.858 168.239 106.774 168.726 106.69C169.331 106.587 169.936 106.476 170.531 106.331C171.141 106.177 171.741 105.986 172.308 105.711C173.489 105.147 174.225 104.219 174.554 102.96C174.765 102.154 174.769 101.333 174.615 100.522C174.319 98.9693 173.611 97.6312 172.472 96.5216C171.703 95.771 170.784 95.2954 169.739 95.0576C169.087 94.9084 168.435 94.8478 167.709 94.8618ZM162.195 78.9588C161.736 78.9914 161.244 79.0287 160.751 79.0613C160.737 79.0613 160.723 79.066 160.709 79.066C160.367 79.1126 160.025 79.1546 159.687 79.2012C159.167 79.2711 158.646 79.3364 158.131 79.411C157.17 79.5509 156.208 79.7001 155.247 79.8446C155.172 79.8539 155.102 79.8772 155.032 79.9006C154.9 79.9425 154.84 80.0404 154.84 80.171C154.84 80.2922 154.877 80.4041 154.919 80.516C155.121 81.0941 155.318 81.6722 155.515 82.2503C156.284 84.5209 157.052 86.7914 157.821 89.0619C157.863 89.1878 157.91 89.3137 157.976 89.4303C158.07 89.6028 158.229 89.682 158.426 89.668C158.487 89.6634 158.543 89.654 158.604 89.6401C159.443 89.4769 160.287 89.3603 161.131 89.2484C161.886 89.1459 162.641 89.0293 163.386 88.8661C164.188 88.689 164.98 88.4698 165.749 88.1714C166.129 88.0269 166.485 87.8451 166.818 87.6073C167.123 87.3882 167.395 87.1318 167.615 86.824C168.013 86.2786 168.21 85.6631 168.257 84.9918C168.295 84.423 168.224 83.8635 168.084 83.3087C167.826 82.311 167.371 81.4158 166.663 80.6558C165.983 79.9285 165.168 79.4297 164.197 79.1826C163.546 79.0334 162.889 78.9914 162.195 78.9588Z" fill="white"/>
</g>
</g>
<defs>
<filter id="filter0_d" x="52.74" y="15.7709" width="213.529" height="211.878" filterUnits="userSpaceOnUse" color-interpolation-filters="sRGB">
<feFlood flood-opacity="0" result="BackgroundImageFix"/>
<feColorMatrix in="SourceAlpha" type="matrix" values="0 0 0 0 0 0 0 0 0 0 0 0 0 0 0 0 0 0 127 0"/>
<feOffset dy="19.2418"/>
<feGaussianBlur stdDeviation="18.63"/>
<feColorMatrix type="matrix" values="0 0 0 0 1 0 0 0 0 0.42 0 0 0 0 0 0 0 0 0.15 0"/>
<feBlend mode="normal" in2="BackgroundImageFix" result="effect1_dropShadow"/>
<feBlend mode="normal" in="SourceGraphic" in2="effect1_dropShadow" result="shape"/>
</filter>
<filter id="filter1_d" x="85.1895" y="32.1651" width="143.525" height="135.431" filterUnits="userSpaceOnUse" color-interpolation-filters="sRGB">
<feFlood flood-opacity="0" result="BackgroundImageFix"/>
<feColorMatrix in="SourceAlpha" type="matrix" values="0 0 0 0 0 0 0 0 0 0 0 0 0 0 0 0 0 0 127 0"/>
<feOffset dx="-0.801742" dy="1.60348"/>
<feGaussianBlur stdDeviation="2.00436"/>
<feColorMatrix type="matrix" values="0 0 0 0 0.866667 0 0 0 0 0.585201 0 0 0 0 0.0361111 0 0 0 1 0"/>
<feBlend mode="normal" in2="BackgroundImageFix" result="effect1_dropShadow"/>
<feBlend mode="normal" in="SourceGraphic" in2="effect1_dropShadow" result="shape"/>
</filter>
<filter id="filter2_f" x="71.2439" y="21.4587" width="177.025" height="168.948" filterUnits="userSpaceOnUse" color-interpolation-filters="sRGB">
<feFlood flood-opacity="0" result="BackgroundImageFix"/>
<feBlend mode="normal" in="SourceGraphic" in2="BackgroundImageFix" result="shape"/>
<feGaussianBlur stdDeviation="9.63" result="effect1_foregroundBlur"/>
</filter>
<filter id="filter3_d" x="85.6935" y="38.5088" width="146.522" height="138.25" filterUnits="userSpaceOnUse" color-interpolation-filters="sRGB">
<feFlood flood-opacity="0" result="BackgroundImageFix"/>
<feColorMatrix in="SourceAlpha" type="matrix" values="0 0 0 0 0 0 0 0 0 0 0 0 0 0 0 0 0 0 127 0"/>
<feOffset dx="-0.801742" dy="1.60348"/>
<feGaussianBlur stdDeviation="2.00436"/>
<feColorMatrix type="matrix" values="0 0 0 0 0 0 0 0 0 0 0 0 0 0 0 0 0 0 0.2 0"/>
<feBlend mode="normal" in2="BackgroundImageFix" result="effect1_dropShadow"/>
<feBlend mode="normal" in="SourceGraphic" in2="effect1_dropShadow" result="shape"/>
</filter>
<linearGradient id="paint0_linear" x1="114.663" y1="43.5408" x2="188.733" y2="160.922" gradientUnits="userSpaceOnUse">
<stop stop-color="#E16000"/>
<stop offset="1" stop-color="#E16000"/>
</linearGradient>
<linearGradient id="paint1_linear" x1="115.71" y1="50.0826" x2="191.419" y2="170.061" gradientUnits="userSpaceOnUse">
<stop stop-color="#E16000"/>
<stop offset="1" stop-color="#E16000"/>
</linearGradient>
<linearGradient id="paint2_linear" x1="59.5195" y1="4.50633e-07" x2="77.5269" y2="158.867" gradientUnits="userSpaceOnUse">
<stop stop-color="#FF6B00"/>
<stop offset="1" stop-color="#FF6B00"/>
</linearGradient>
<linearGradient id="paint3_linear" x1="56.7665" y1="4.2979e-07" x2="73.9409" y2="151.519" gradientUnits="userSpaceOnUse">
<stop stop-color="#FF6B00"/>
<stop offset="1" stop-color="#FF6B00"/>
</linearGradient>
</defs>
</svg>
