<svg width="185" height="36" viewBox="0 0 185 36" fill="none" xmlns="http://www.w3.org/2000/svg">
<mask id="mask0" mask-type="alpha" maskUnits="userSpaceOnUse" x="0" y="0" width="185" height="36">
<rect x="0.5" width="184" height="36" fill="#C4C4C4"/>
</mask>
<g mask="url(#mask0)">
<path d="M45.0474 33.713C42.373 35.269 38.6936 35.9984 35.1277 35.9984C23.425 35.9984 19 28.3641 19 19.5303C19 9.44852 24.5758 1.70076 36.0192 1.70076C38.9691 1.70076 42.7944 2.67328 45.4364 4.34278L44.9664 12.901L41.676 12.5606L41.0114 8.96226C40.6549 6.70925 39.0664 5.36392 36.0516 5.36392C30.4271 5.36392 26.9909 10.4048 26.9909 18.8172C26.9909 27.8778 30.0868 32.3839 35.8733 32.3839C39.2447 32.3839 40.4928 31.5734 41.1411 29.0124L42.0002 26.03H45.4851L45.0474 33.713ZM56.7501 29.5149C56.7501 32.4973 56.9122 32.8863 58.5331 33.1619L59.4245 33.324V35.4473H46.9438V33.324L47.9164 33.1619C49.5372 32.8863 49.6993 32.6108 49.6993 29.5636V6.38507C49.6993 4.37519 49.1968 3.93755 47.6084 3.54854L46.7493 3.32163L47.0249 1.31174H56.7501V29.5149ZM82.6192 35.3339C81.1929 35.7553 79.8313 35.9984 78.4698 35.9984C74.7418 35.9984 73.7855 34.3775 73.4289 32.7891C72.2619 34.3775 70.4141 35.9984 66.6861 35.9984C61.1103 35.9984 60.1053 32.0921 60.1053 29.369C60.1053 22.2372 67.5127 22.1562 73.0885 21.9617V19.0117C73.0885 16.7262 72.1646 15.2188 69.4902 15.2188C67.1237 15.2188 64.8383 16.0293 62.5853 17.0828L61.1589 14.1328C62.6663 13.1279 66.3457 10.8749 71.3542 10.8749C77.4324 10.8749 80.1555 12.8199 80.1555 19.9842V30.7954C80.1555 32.6918 80.4311 32.9998 81.9709 33.1943L82.6354 33.2753V35.3339H82.6192ZM73.0885 24.7495C69.2146 24.6361 67.0751 25.4789 67.0751 28.2344C67.0751 30.3578 68.1935 31.4438 70.0251 31.4438C71.7756 31.4438 73.0885 30.6333 73.0885 28.8828V24.7495ZM93.6736 29.5149C93.6736 32.4973 93.9005 32.8863 95.57 33.0808L97.1909 33.2753V35.4473H84.0132V33.2753L84.8722 33.1132C86.4931 32.8053 86.6228 32.5784 86.6228 29.5149V16.9532C86.6228 15.1378 86.3148 14.2463 84.7264 13.9383L83.7538 13.7438L83.9159 11.5394H92.4093L92.8793 11.815L93.4629 15.2188C94.9379 12.6578 96.7532 10.8749 99.2818 10.8749C100.206 10.8749 101.065 11.037 101.875 11.2639L101.34 19.3683H100.757C97.3854 17.3584 95.181 16.8559 93.706 17.5043L93.6736 29.5149ZM112.848 29.5149C112.848 32.4973 113.075 32.8863 114.713 33.1619L115.604 33.324V35.4473H102.75V33.324L103.723 33.1619C105.392 32.8863 105.782 32.6108 105.782 29.5636V17.0018C105.782 14.8784 105.311 14.2949 103.723 13.9059L103.058 13.7438L103.221 11.5394H112.411L112.881 11.815L112.848 29.5149ZM126.577 29.5149C126.577 32.4973 126.545 32.8863 128.198 33.2267L128.749 33.3078V35.4311H116.966V33.3078L117.662 33.1457C119.332 32.8701 119.526 32.5622 119.526 29.4987V16.9856C119.526 14.9757 119.219 14.2787 117.581 13.9221L116.658 13.7276L116.82 11.5232H125.491L125.961 11.7988L126.318 14.5543C128.376 12.4633 130.937 10.8749 134.179 10.8749C138.085 10.8749 140.501 13.1603 140.501 18.5092V29.5149C140.501 32.4649 140.663 32.9674 142.316 33.1619L143.175 33.324V35.4473H131.391V33.324L131.975 33.2429C133.369 33.016 133.45 32.4649 133.45 29.7905V19.2548C133.45 16.6128 132.396 15.851 130.386 15.851C128.571 15.851 127.128 16.3534 126.593 16.71L126.577 29.5149ZM115.361 3.62959L115.393 3.12712L110.352 0.03125L104.274 7.24413L106.446 9.18918L115.361 3.62959Z" fill="#93A8C3"/>
<path d="M156.905 11.0872C152.934 12.4325 156.922 11.071 152.918 12.4325C152.918 12.4487 152.918 12.4649 152.918 12.4811C152.918 14.3289 151.427 15.8201 149.579 15.8201C147.731 15.8201 146.224 14.3289 146.224 12.4811C146.224 10.6334 147.715 9.14215 149.579 9.14215C151.006 9.14215 152.205 10.0336 152.691 11.2979C154.944 10.682 160.585 9.01248 164.005 4.44162C162.449 2.44795 160.244 1.00537 157.781 0.373233C156.776 0.113894 155.884 0.0166434 154.896 0.000434718C153.064 -0.015774 151.313 0.421861 149.741 1.21609C148.542 1.81581 147.488 2.59383 146.564 3.53393C145.414 4.73338 144.522 6.03007 143.939 7.81303C141.685 14.7342 147.164 17.0844 149.579 17.0844C150.325 17.0844 152.448 16.9385 154.296 15.4149C155.349 14.5397 156.419 13.2916 156.905 11.0872ZM166.436 10.8603C163.438 10.2443 161.12 10.4551 160.585 10.5037C159.142 18.138 150.633 22.644 153.453 23.0492C153.972 23.1303 154.571 23.1627 154.863 23.1627C156.29 23.1465 157.586 22.9358 158.98 22.4171C162.076 21.2501 165.075 18.527 166.096 14.41C166.339 13.4699 166.42 12.6757 166.452 11.6059C166.469 11.3627 166.469 11.1034 166.436 10.8603Z" fill="#93A8C3"/>
</g>
</svg>
