<svg width="240" height="240" viewBox="0 0 240 240" fill="none" xmlns="http://www.w3.org/2000/svg">
<path d="M120 240C186.274 240 240 186.274 240 120C240 53.7259 186.274 0 120 0C53.7258 0 0 53.7259 0 120C0 186.274 53.7258 240 120 240Z" fill="#333333"/>
<path d="M120.001 52.2699V130.552" stroke="#FEFEFF" stroke-width="7.3663" stroke-miterlimit="10" stroke-linecap="round" stroke-linejoin="round"/>
<path d="M80.7373 113.62L120.001 130.552" stroke="#FEFEFF" stroke-width="7.3663" stroke-miterlimit="10" stroke-linecap="round" stroke-linejoin="round"/>
<path d="M80.7373 113.62L120.001 96.4417" stroke="#FEFEFF" stroke-width="7.3663" stroke-miterlimit="10" stroke-linecap="round" stroke-linejoin="round"/>
<path d="M80.7373 113.62L120.001 52.2699" stroke="#FEFEFF" stroke-width="7.3663" stroke-miterlimit="10" stroke-linecap="round" stroke-linejoin="round"/>
<path d="M159.265 113.62L120.001 130.552" stroke="#FEFEFF" stroke-width="7.3663" stroke-miterlimit="10" stroke-linecap="round" stroke-linejoin="round"/>
<path d="M120.001 143.067L80.7373 126.135L120.001 187.73V143.067Z" stroke="#FEFEFF" stroke-width="7.3663" stroke-miterlimit="10" stroke-linecap="round" stroke-linejoin="round"/>
<path d="M120.001 143.067L80.7373 126.135L120.001 187.73" stroke="#FEFEFF" stroke-width="7.3663" stroke-miterlimit="10" stroke-linecap="round" stroke-linejoin="round"/>
<path d="M120.001 143.067L159.265 126.135L120.001 187.73" stroke="#FEFEFF" stroke-width="7.3663" stroke-miterlimit="10" stroke-linecap="round" stroke-linejoin="round"/>
<path d="M159.265 113.62L120.001 96.4417" stroke="#FEFEFF" stroke-width="7.3663" stroke-miterlimit="10" stroke-linecap="round" stroke-linejoin="round"/>
<path d="M159.265 113.62L120.001 52.2699" stroke="#FEFEFF" stroke-width="7.3663" stroke-miterlimit="10" stroke-linecap="round" stroke-linejoin="round"/>
</svg>
