<svg width="240" height="240" viewBox="0 0 240 240" fill="none" xmlns="http://www.w3.org/2000/svg">
<path d="M120 240C186.274 240 240 186.274 240 120C240 53.7258 186.274 0 120 0C53.7259 0 0 53.7258 0 120C0 186.274 53.7259 240 120 240Z" fill="#FEB402"/>
<path d="M98.8953 120H141.84C152.392 120 160.736 128.589 160.736 138.896C160.736 149.448 152.147 157.791 141.84 157.791H84.1714" stroke="white" stroke-width="7.3663" stroke-miterlimit="10" stroke-linecap="round" stroke-linejoin="round"/>
<path d="M84.1714 81.9632H134.233C144.785 81.9632 153.128 90.5522 153.128 100.859C153.128 111.411 144.539 119.755 134.233 119.755H98.8953" stroke="white" stroke-width="7.3663" stroke-miterlimit="10" stroke-linecap="round" stroke-linejoin="round"/>
<path d="M98.895 67.4847V172.761" stroke="white" stroke-width="7.3663" stroke-miterlimit="10" stroke-linecap="round" stroke-linejoin="round"/>
<path d="M122.453 157.791V172.761" stroke="white" stroke-width="7.3663" stroke-miterlimit="10" stroke-linecap="round" stroke-linejoin="round"/>
<path d="M122.453 67.2393V81.9632" stroke="white" stroke-width="7.3663" stroke-miterlimit="10" stroke-linecap="round" stroke-linejoin="round"/>
</svg>
