<svg width="240" height="240" viewBox="0 0 240 240" fill="none" xmlns="http://www.w3.org/2000/svg">
<path d="M120 240C186.274 240 240 186.274 240 120C240 53.7258 186.274 0 120 0C53.7258 0 0 53.7258 0 120C0 186.274 53.7258 240 120 240Z" fill="#B9B9B9"/>
<path d="M96.4434 81.227C97.6704 76.5644 98.8973 71.9018 100.124 67.2392C100.37 66.2576 100.861 66.0122 101.597 66.0122C112.885 66.0122 124.173 66.0122 135.462 66.0122C136.689 66.0122 136.934 66.2576 136.443 67.4846C133.008 80.4908 129.572 93.4969 126.137 106.503C126.137 106.748 126.137 106.994 125.891 107.485C129.327 106.258 132.517 105.031 135.953 103.804C135.462 106.012 134.971 107.975 134.235 109.939C133.253 113.62 132.272 117.301 131.29 120.982C131.045 121.718 130.799 122.209 129.818 122.454C127.118 123.436 124.419 124.417 121.719 125.399C120.983 125.644 120.738 125.89 120.492 126.626C118.529 133.742 116.811 140.614 114.848 147.73C114.603 148.957 114.848 149.202 116.075 149.202C124.173 149.202 132.272 149.202 140.124 149.202" stroke="white" stroke-width="7.3663" stroke-miterlimit="10" stroke-linecap="round" stroke-linejoin="round"/>
<path d="M92.2705 97.1786C92.2705 96.6875 92.5161 96.1964 92.5161 95.9509" stroke="white" stroke-width="7.3663" stroke-miterlimit="10" stroke-linecap="round" stroke-linejoin="round"/>
<path d="M156.565 149.448C158.529 149.448 166.136 149.448 168.099 149.448C169.817 149.448 169.817 149.448 169.572 151.166C167.608 158.282 165.891 165.153 163.927 172.27C163.682 172.761 163.682 173.252 163.191 173.497C162.7 173.742 162.21 173.742 161.719 173.742C132.271 173.742 102.823 173.742 73.3753 173.742C72.8845 173.742 72.3937 173.988 71.9029 173.497C71.4121 173.006 71.9029 172.27 71.9029 171.779C74.6023 161.718 77.3017 151.902 79.7557 141.84C79.7557 141.595 79.7557 141.595 79.7557 141.104C76.3201 142.331 73.1299 143.558 69.6943 144.785C70.1851 143.067 70.4305 141.35 70.9213 139.877C71.9029 135.705 73.1299 131.534 74.1115 127.362C74.3569 126.626 74.6023 126.135 75.5839 125.89C78.2833 124.908 80.7373 123.926 83.1913 122.945C84.1729 122.454 84.9091 121.963 85.1545 120.982C86.6269 115.583 87.8538 110.429 89.3262 105.031" stroke="white" stroke-width="7.3663" stroke-miterlimit="10" stroke-linecap="round" stroke-linejoin="round"/>
</svg>
