<svg width="240" height="240" viewBox="0 0 240 240" fill="none" xmlns="http://www.w3.org/2000/svg">
<path d="M120 240C186.274 240 240 186.274 240 120C240 53.7259 186.274 0 120 0C53.7258 0 0 53.7259 0 120C0 186.274 53.7258 240 120 240Z" fill="#2776CA"/>
<path d="M127.362 69.2025V80.4908C132.516 81.4724 137.178 83.4356 141.105 86.3804C146.994 90.7975 150.184 97.1779 150.43 105.521H134.479C134.233 100.859 132.025 97.4233 128.098 95.7055C128.098 95.4601 128.098 95.4601 127.853 95.4601C127.608 95.4601 127.608 95.4601 127.362 95.2147V115.337L132.025 116.319C138.16 117.791 142.577 119.755 145.767 122.209C150.43 125.89 152.884 131.288 152.884 138.405C152.884 145.767 150.184 151.656 144.54 156.564C140.368 160.245 134.479 162.454 127.362 163.436V171.534H112.638V163.19C105.767 162.209 100.368 160 96.1966 156.81C90.307 152.147 87.3623 145.767 87.3623 137.669H103.068C103.559 140.859 104.54 143.558 106.258 145.521C107.73 147.239 109.939 148.712 112.884 149.448V127.853C105.031 126.135 99.6322 124.172 96.6874 121.963C91.2886 118.282 88.5893 112.638 88.5893 104.785C88.5893 97.6687 91.2886 91.7791 96.442 87.1166C100.368 83.4356 105.767 81.227 112.884 80.4908V69.6932H127.362V69.2025ZM112.638 111.411V93.7423C110.675 94.2331 108.957 94.9693 107.73 95.7055C105.031 97.4233 103.804 99.8773 103.804 102.822C103.804 105.767 105.031 107.975 107.73 109.202C108.467 110.184 110.184 110.675 112.638 111.411ZM127.362 148.957C128.344 148.712 129.08 148.712 129.816 148.221C134.479 146.503 136.933 143.558 136.933 139.141C136.933 136.442 135.706 134.479 133.497 133.006C132.025 132.27 130.062 131.288 127.608 130.552V148.957H127.362ZM127.362 61.8405H112.638C108.467 61.8405 105.276 65.0307 105.276 69.2025V73.865C99.8776 75.3374 95.215 77.7914 91.2886 80.9816C84.4175 87.1166 80.9819 94.9693 80.9819 104.294C80.9819 117.055 87.1169 123.926 92.2702 127.607C93.2518 128.344 94.4788 129.08 95.9512 129.816H87.1168C82.9451 129.816 79.7549 133.006 79.7549 137.178C79.7549 147.485 83.6813 156.074 91.534 162.209C95.4604 165.153 99.8776 167.362 105.276 168.834V171.043C105.276 175.215 108.467 178.405 112.638 178.405H127.362C131.534 178.405 134.724 175.215 134.724 171.043V168.834C140.368 167.362 145.276 164.908 149.203 161.718C156.319 155.337 160 147.485 160 137.914C160 128.589 156.565 121.227 150.184 116.074C148.467 114.847 146.749 113.62 144.54 112.638H150.184C152.148 112.638 154.111 111.902 155.583 110.429C157.055 108.957 157.792 106.994 157.546 105.031C157.301 94.4785 153.129 86.135 145.276 80.2454C142.086 77.7914 138.405 76.0736 134.479 74.6012V69.2025C134.724 65.2761 131.289 61.8405 127.362 61.8405Z" fill="white"/>
<path d="M145.521 42.6994C178.159 53.4969 201.471 84.1718 201.471 120.245C201.471 156.319 177.913 186.994 145.521 197.791" stroke="white" stroke-width="7.3663" stroke-miterlimit="10" stroke-linecap="round" stroke-linejoin="round"/>
<path d="M94.2331 197.546C61.8405 186.748 38.2822 156.074 38.2822 120.245C38.2822 84.1718 61.8405 53.497 94.2331 42.6994" stroke="white" stroke-width="7.3663" stroke-miterlimit="10" stroke-linecap="round" stroke-linejoin="round"/>
</svg>
