<svg width="1407" height="511" viewBox="0 0 1407 511" fill="none" xmlns="http://www.w3.org/2000/svg">
<g filter="url(#filter0_f)">
<ellipse rx="29.8787" ry="35.7883" transform="matrix(0.995025 0.100251 0.00765068 0.999505 1205.72 344.207)" fill="url(#paint0_linear)"/>
</g>
<path d="M1233.86 325.082C1246.07 342.078 1245.22 363.781 1232.73 375.809C1231.79 376.728 1230.63 377.792 1229.39 378.67C1213.67 389.816 1190.63 384.529 1176.91 365.446C1162.74 345.713 1165.66 323.003 1181.38 311.857C1197.11 300.711 1220.6 306.632 1233.86 325.082Z" fill="#DF6105"/>
<g opacity="0.3" filter="url(#filter1_f)">
<path d="M1235.73 331.793C1248.11 349.019 1247.54 370.806 1235.27 382.726C1234.34 383.637 1233.2 384.69 1231.97 385.557C1216.46 396.55 1193.46 390.946 1179.56 371.604C1165.19 351.604 1167.81 328.834 1183.32 317.841C1198.83 306.847 1222.29 313.094 1235.73 331.793Z" fill="#F86D08"/>
</g>
<ellipse rx="32.3141" ry="41.0546" transform="matrix(0.820298 -0.581419 0.580347 0.80767 1207.11 343.664)" fill="#FF6B00"/>
<path d="M1215.75 341.55C1214.81 341.35 1213.85 341.267 1212.92 341.305C1213.69 340.793 1214.34 340.135 1214.82 339.364C1215.22 338.709 1215.46 337.965 1215.52 337.181C1215.57 336.42 1215.44 335.638 1215.14 334.892C1214.74 333.859 1214.02 332.939 1213.09 332.263C1212.06 331.526 1210.87 331.07 1209.66 330.952C1209.08 330.894 1208.51 330.889 1207.95 330.937L1206.34 326.881L1202.45 327.926L1203.95 331.705L1201.45 332.376L1199.95 328.597L1196.07 329.641L1197.57 333.421L1191.64 335.014L1192.9 338.194L1193.8 337.951C1194.21 337.81 1194.65 337.754 1195.09 337.787C1195.33 337.828 1195.55 337.941 1195.72 338.109C1196.01 338.502 1196.23 338.93 1196.37 339.376L1201.46 352.195C1201.66 352.623 1201.79 353.072 1201.84 353.524C1201.82 353.746 1201.73 353.947 1201.56 354.09C1201.22 354.327 1200.83 354.493 1200.4 354.576L1199.5 354.819L1200.76 357.999L1206.69 356.406L1208.19 360.188L1212.07 359.143L1210.57 355.362L1213.07 354.691L1214.57 358.477L1218.46 357.433L1216.83 353.322C1217.37 353.059 1217.88 352.744 1218.35 352.381C1219.41 351.585 1220.17 350.479 1220.53 349.198C1220.86 348.028 1220.78 346.744 1220.3 345.532C1219.92 344.555 1219.29 343.663 1218.47 342.95C1217.68 342.268 1216.74 341.784 1215.75 341.55ZM1204.01 335.801C1205.02 335.48 1206.09 335.295 1207.18 335.251C1207.77 335.26 1208.36 335.458 1208.85 335.814C1209.34 336.187 1209.71 336.686 1209.92 337.241C1210.15 337.79 1210.2 338.376 1210.05 338.912C1209.89 339.483 1209.53 339.965 1209.03 340.291C1208.18 340.808 1207.24 341.184 1206.24 341.407L1203.72 342.084L1201.5 336.48L1204.01 335.801ZM1214.24 348.772C1214.05 349.427 1213.63 349.977 1213.06 350.34C1212.35 350.752 1211.57 351.063 1210.75 351.264L1209.07 351.715C1208.74 351.832 1208.38 351.894 1208.01 351.898C1207.93 351.883 1207.85 351.854 1207.79 351.811C1207.72 351.769 1207.66 351.713 1207.61 351.65C1207.38 351.261 1207.19 350.855 1207.04 350.439L1205.06 345.459L1208.03 344.661C1209 344.354 1210.03 344.213 1211.08 344.243C1211.74 344.286 1212.39 344.527 1212.93 344.931C1213.47 345.357 1213.88 345.917 1214.1 346.535C1214.41 347.272 1214.46 348.063 1214.24 348.772Z" fill="white"/>
<mask id="mask0" mask-type="alpha" maskUnits="userSpaceOnUse" x="981" y="76" width="174" height="170">
<rect width="172.653" height="170" transform="matrix(-1 0 0 1 1154.07 76)" fill="#C4C4C4"/>
</mask>
<g mask="url(#mask0)">
<g filter="url(#filter2_d)">
<path d="M1029.85 125.572C1013.2 146.148 1014.36 172.294 1031.38 186.69C1032.66 187.79 1034.25 189.062 1035.94 190.111C1057.38 203.419 1088.79 196.867 1107.5 173.763C1126.83 149.874 1122.85 122.532 1101.41 109.225C1079.97 95.9171 1047.93 103.236 1029.85 125.572Z" fill="url(#paint1_linear)"/>
</g>
<g filter="url(#filter3_f)">
<g filter="url(#filter4_d)">
<path d="M1027.48 130.776C1010.46 151.807 1011.64 178.531 1029.04 193.245C1030.35 194.37 1031.97 195.671 1033.7 196.743C1055.61 210.345 1087.73 203.648 1106.84 180.033C1126.61 155.615 1122.54 127.669 1100.62 114.067C1078.71 100.465 1045.96 107.946 1027.48 130.776Z" fill="url(#paint2_linear)"/>
</g>
<ellipse rx="44.5986" ry="54.1514" transform="matrix(-0.849646 -0.527354 -0.629176 0.777263 1066.77 155.356)" fill="url(#paint3_linear)"/>
</g>
<ellipse rx="42.5358" ry="51.6466" transform="matrix(-0.849646 -0.527354 -0.629176 0.777263 1065.85 147.997)" fill="url(#paint4_linear)"/>
<path opacity="0.600006" d="M1069.95 141.473L1081.41 153.946L1063.2 157.21L1052.62 142.682L1069.95 141.473Z" fill="white"/>
<path opacity="0.449997" d="M1081.42 153.948L1063.21 157.212L1069.96 141.475L1077.73 123.345L1081.42 153.948Z" fill="white"/>
<path opacity="0.800003" d="M1077.72 123.344L1069.95 141.475L1063.2 157.211L1052.62 142.683L1077.72 123.344Z" fill="white"/>
<path opacity="0.449997" d="M1080.19 156.805L1056.7 172.381L1061.98 160.064L1080.19 156.805Z" fill="white"/>
<path opacity="0.800003" d="M1061.98 160.063L1056.7 172.38L1051.39 145.537L1061.98 160.063Z" fill="white"/>
</g>
<g filter="url(#filter5_d)">
<path d="M340.244 245.568C365.162 276.384 363.426 315.541 337.96 337.1C336.042 338.748 333.67 340.654 331.142 342.224C299.066 362.155 252.063 352.342 224.084 317.741C195.153 281.963 201.109 241.015 233.186 221.085C265.262 201.155 313.194 212.116 340.244 245.568Z" fill="url(#paint5_linear)"/>
</g>
<g filter="url(#filter6_f)">
<g filter="url(#filter7_d)">
<path d="M343.792 253.327C369.261 284.824 367.486 324.848 341.458 346.884C339.497 348.568 337.073 350.516 334.489 352.122C301.702 372.493 253.66 362.464 225.062 327.097C195.491 290.527 201.579 248.674 234.365 228.302C267.151 207.931 316.143 219.135 343.792 253.327Z" fill="url(#paint6_linear)"/>
</g>
<ellipse rx="66.7425" ry="81.066" transform="matrix(0.849398 -0.527753 0.628778 0.777585 285.007 290.148)" fill="url(#paint7_linear)"/>
</g>
<ellipse rx="63.6554" ry="77.3164" transform="matrix(0.849398 -0.527753 0.628778 0.777585 286.398 279.151)" fill="url(#paint8_linear)"/>
<path d="M270.768 290.518L265.259 291.278C264.759 291.344 264.059 291.278 263.659 290.226L261.214 283.548L267.868 282.63L265.85 277.121L260.332 277.889C259.841 277.956 259.141 277.889 258.741 276.837L256.714 271.295C256.654 271.158 256.611 271.015 256.587 270.869C256.542 270.51 256.651 270.093 257.414 269.985L262.95 269.225L256.769 252.364C256.691 252.181 256.636 251.991 256.605 251.797C256.551 251.388 256.678 250.962 257.514 250.853L277.513 248.082C279.07 247.957 280.637 247.957 282.194 248.082C285.67 248.371 289.059 249.242 292.193 250.653C294.486 251.676 296.648 252.93 298.638 254.393C300.247 255.591 301.765 256.888 303.183 258.274C304.588 259.726 305.874 261.271 307.029 262.898L311.992 262.397C313.101 262.247 313.455 262.639 313.81 263.591L315.71 268.774C315.768 268.923 315.807 269.077 315.828 269.233C315.867 269.36 315.872 269.493 315.844 269.622C315.816 269.751 315.756 269.872 315.667 269.976C315.578 270.079 315.465 270.162 315.335 270.217C315.204 270.272 315.062 270.298 314.919 270.293L311.501 270.769C312.295 272.562 312.966 274.399 313.51 276.27L317.937 275.677L318.255 275.969C318.582 276.258 318.78 276.648 318.81 277.063C318.991 277.539 319.146 277.948 319.255 278.348L320.637 282.104C320.703 282.269 320.748 282.44 320.773 282.613C320.811 282.736 320.817 282.865 320.792 282.99C320.767 283.115 320.711 283.233 320.629 283.336C320.546 283.438 320.439 283.522 320.316 283.58C320.193 283.639 320.057 283.671 319.919 283.674L314.764 284.383C315.023 288.1 314.312 291.82 312.692 295.234C312.135 296.33 311.497 297.39 310.783 298.406L310.247 299.007C309.632 299.714 308.97 300.386 308.265 301.018C306.617 302.401 304.735 303.529 302.693 304.357C300.871 305.019 298.97 305.479 297.029 305.726L296.557 305.785L277.367 308.439L270.768 290.518ZM306.92 285.51L277.531 289.575L281.485 300.342L294.975 298.473C295.576 298.454 296.167 298.323 296.711 298.089L296.82 298.089C298.645 297.672 300.357 296.913 301.847 295.86C302.401 295.507 302.897 295.082 303.32 294.6L303.456 294.449L303.656 294.449C306.026 291.932 307.395 288.751 307.538 285.426C307.365 285.426 307.183 285.493 307.01 285.543L306.92 285.543L306.92 285.51ZM265.723 257.464L269.759 268.415L299.756 264.242C299.324 263.728 298.863 263.235 298.375 262.764C297.475 261.831 296.49 260.971 295.43 260.194L295.348 260.135C294.866 259.698 294.333 259.311 293.757 258.983C290.944 257.153 287.709 255.944 284.303 255.453C282.793 255.266 281.262 255.286 279.758 255.511L265.723 257.464ZM274.595 281.67L306.483 277.263C305.923 275.396 305.249 273.56 304.465 271.762L272.577 276.136L274.595 281.637" fill="#FEFDFC"/>
<defs>
<filter id="filter0_f" x="1165.99" y="298.309" width="79.4627" height="91.7956" filterUnits="userSpaceOnUse" color-interpolation-filters="sRGB">
<feFlood flood-opacity="0" result="BackgroundImageFix"/>
<feBlend mode="normal" in="SourceGraphic" in2="BackgroundImageFix" result="shape"/>
<feGaussianBlur stdDeviation="5" result="effect1_foregroundBlur"/>
</filter>
<filter id="filter1_f" x="1160.11" y="302.418" width="94.6373" height="98.7098" filterUnits="userSpaceOnUse" color-interpolation-filters="sRGB">
<feFlood flood-opacity="0" result="BackgroundImageFix"/>
<feBlend mode="normal" in="SourceGraphic" in2="BackgroundImageFix" result="shape"/>
<feGaussianBlur stdDeviation="5" result="effect1_foregroundBlur"/>
</filter>
<filter id="filter2_d" x="1013.16" y="100.177" width="110.028" height="102.363" filterUnits="userSpaceOnUse" color-interpolation-filters="sRGB">
<feFlood flood-opacity="0" result="BackgroundImageFix"/>
<feColorMatrix in="SourceAlpha" type="matrix" values="0 0 0 0 0 0 0 0 0 0 0 0 0 0 0 0 0 0 127 0"/>
<feOffset dx="-0.801742" dy="1.60348"/>
<feGaussianBlur stdDeviation="2.00436"/>
<feColorMatrix type="matrix" values="0 0 0 0 0.236857 0 0 0 0 0.391758 0 0 0 0 0.692448 0 0 0 1 0"/>
<feBlend mode="normal" in2="BackgroundImageFix" result="effect1_dropShadow"/>
<feBlend mode="normal" in="SourceGraphic" in2="effect1_dropShadow" result="shape"/>
</filter>
<filter id="filter3_f" x="1005.33" y="97.1328" width="124.267" height="116.577" filterUnits="userSpaceOnUse" color-interpolation-filters="sRGB">
<feFlood flood-opacity="0" result="BackgroundImageFix"/>
<feBlend mode="normal" in="SourceGraphic" in2="BackgroundImageFix" result="shape"/>
<feGaussianBlur stdDeviation="5" result="effect1_foregroundBlur"/>
</filter>
<filter id="filter4_d" x="1010.52" y="104.872" width="112.285" height="104.45" filterUnits="userSpaceOnUse" color-interpolation-filters="sRGB">
<feFlood flood-opacity="0" result="BackgroundImageFix"/>
<feColorMatrix in="SourceAlpha" type="matrix" values="0 0 0 0 0 0 0 0 0 0 0 0 0 0 0 0 0 0 127 0"/>
<feOffset dx="-0.801742" dy="1.60348"/>
<feGaussianBlur stdDeviation="2.00436"/>
<feColorMatrix type="matrix" values="0 0 0 0 0 0 0 0 0 0 0 0 0 0 0 0 0 0 0.2 0"/>
<feBlend mode="normal" in2="BackgroundImageFix" result="effect1_dropShadow"/>
<feBlend mode="normal" in="SourceGraphic" in2="effect1_dropShadow" result="shape"/>
</filter>
<filter id="filter5_d" x="199.352" y="208.112" width="162.713" height="151.393" filterUnits="userSpaceOnUse" color-interpolation-filters="sRGB">
<feFlood flood-opacity="0" result="BackgroundImageFix"/>
<feColorMatrix in="SourceAlpha" type="matrix" values="0 0 0 0 0 0 0 0 0 0 0 0 0 0 0 0 0 0 127 0"/>
<feOffset dx="-1.0097" dy="2.01941"/>
<feGaussianBlur stdDeviation="2.52426"/>
<feColorMatrix type="matrix" values="0 0 0 0 0.866667 0 0 0 0 0.585201 0 0 0 0 0.0361111 0 0 0 1 0"/>
<feBlend mode="normal" in2="BackgroundImageFix" result="effect1_dropShadow"/>
<feBlend mode="normal" in="SourceGraphic" in2="effect1_dropShadow" result="shape"/>
</filter>
<filter id="filter6_f" x="190.864" y="202.813" width="186.217" height="174.858" filterUnits="userSpaceOnUse" color-interpolation-filters="sRGB">
<feFlood flood-opacity="0" result="BackgroundImageFix"/>
<feBlend mode="normal" in="SourceGraphic" in2="BackgroundImageFix" result="shape"/>
<feGaussianBlur stdDeviation="7.55633" result="effect1_foregroundBlur"/>
</filter>
<filter id="filter7_d" x="199.918" y="215.108" width="166.089" height="154.519" filterUnits="userSpaceOnUse" color-interpolation-filters="sRGB">
<feFlood flood-opacity="0" result="BackgroundImageFix"/>
<feColorMatrix in="SourceAlpha" type="matrix" values="0 0 0 0 0 0 0 0 0 0 0 0 0 0 0 0 0 0 127 0"/>
<feOffset dx="-1.0097" dy="2.01941"/>
<feGaussianBlur stdDeviation="2.52426"/>
<feColorMatrix type="matrix" values="0 0 0 0 0 0 0 0 0 0 0 0 0 0 0 0 0 0 0.2 0"/>
<feBlend mode="normal" in2="BackgroundImageFix" result="effect1_dropShadow"/>
<feBlend mode="normal" in="SourceGraphic" in2="effect1_dropShadow" result="shape"/>
</filter>
<linearGradient id="paint0_linear" x1="29.8787" y1="2.21959e-07" x2="38.5854" y2="78.2869" gradientUnits="userSpaceOnUse">
<stop stop-color="#FF6B00"/>
<stop offset="1" stop-color="#FF6B00"/>
</linearGradient>
<linearGradient id="paint1_linear" x1="1101.41" y1="109.225" x2="1046.96" y2="196.954" gradientUnits="userSpaceOnUse">
<stop stop-color="#3C64B1"/>
<stop offset="1" stop-color="#3C64B1"/>
</linearGradient>
<linearGradient id="paint2_linear" x1="1100.62" y1="114.067" x2="1044.97" y2="203.736" gradientUnits="userSpaceOnUse">
<stop stop-color="#3C64B1"/>
<stop offset="1" stop-color="#3C64B1"/>
</linearGradient>
<linearGradient id="paint3_linear" x1="44.5986" y1="3.35846e-07" x2="57.9486" y2="118.416" gradientUnits="userSpaceOnUse">
<stop stop-color="#6985E8"/>
<stop offset="1" stop-color="#829DFF"/>
</linearGradient>
<linearGradient id="paint4_linear" x1="42.5358" y1="3.20312e-07" x2="55.2683" y2="112.939" gradientUnits="userSpaceOnUse">
<stop stop-color="#6985E8"/>
<stop offset="1" stop-color="#829DFF"/>
</linearGradient>
<linearGradient id="paint5_linear" x1="233.186" y1="221.085" x2="314.772" y2="352.396" gradientUnits="userSpaceOnUse">
<stop stop-color="#E89C09"/>
<stop offset="1" stop-color="#FFA900"/>
</linearGradient>
<linearGradient id="paint6_linear" x1="234.365" y1="228.302" x2="317.757" y2="362.518" gradientUnits="userSpaceOnUse">
<stop stop-color="#E89C09"/>
<stop offset="1" stop-color="#FFA900"/>
</linearGradient>
<linearGradient id="paint7_linear" x1="66.7425" y1="5.02771e-07" x2="86.7345" y2="177.271" gradientUnits="userSpaceOnUse">
<stop stop-color="#FFB82D"/>
<stop offset="1" stop-color="#FFC657"/>
</linearGradient>
<linearGradient id="paint8_linear" x1="63.6554" y1="4.79516e-07" x2="82.7227" y2="169.071" gradientUnits="userSpaceOnUse">
<stop stop-color="#FFB82D"/>
<stop offset="1" stop-color="#FFC657"/>
</linearGradient>
</defs>
</svg>
