<svg width="330" height="384" viewBox="0 0 330 384" fill="none" xmlns="http://www.w3.org/2000/svg">
<mask id="mask0" mask-type="alpha" maskUnits="userSpaceOnUse" x="0" y="0" width="330" height="384">
<rect width="330" height="384" fill="#C4C4C4"/>
</mask>
<g mask="url(#mask0)">
<g filter="url(#filter0_d)">
<g filter="url(#filter1_d)">
<path d="M215.642 63.9034C237.906 91.8368 236.354 127.332 213.601 146.875C211.887 148.368 209.768 150.096 207.51 151.52C178.85 169.586 136.854 160.691 111.855 129.327C86.0055 96.8947 91.3273 59.7764 119.987 41.7103C148.647 23.6442 191.473 33.5804 215.642 63.9034Z" fill="url(#paint0_linear)"/>
</g>
<g filter="url(#filter2_f)">
<g filter="url(#filter3_d)">
<path d="M218.812 70.9715C241.569 99.5229 239.983 135.803 216.727 155.778C214.975 157.305 212.809 159.071 210.5 160.526C181.206 178.992 138.282 169.901 112.729 137.842C86.308 104.693 91.7475 66.7532 121.042 48.2874C150.336 29.8216 194.109 39.9776 218.812 70.9715Z" fill="url(#paint1_linear)"/>
</g>
<ellipse rx="59.8759" ry="73.0696" transform="matrix(0.845954 -0.533256 0.623283 0.781996 166.293 104.34)" fill="url(#paint2_linear)"/>
</g>
<ellipse rx="57.1065" ry="69.6898" transform="matrix(0.845954 -0.533256 0.623283 0.781996 167.527 94.3495)" fill="url(#paint3_linear)"/>
<path opacity="0.600006" d="M162.038 85.4947L146.718 102.427L171.058 106.858L185.2 87.1354L162.038 85.4947Z" fill="white"/>
<path opacity="0.449997" d="M146.715 102.428L171.055 106.859L162.036 85.4956L151.643 60.8814L146.715 102.428Z" fill="white"/>
<path opacity="0.800003" d="M151.645 60.8867L162.037 85.5008L171.056 106.864L185.199 87.1415L151.645 60.8867Z" fill="white"/>
<path opacity="0.449997" d="M148.352 106.305L179.748 127.45L172.689 110.73L148.352 106.305Z" fill="white"/>
<path opacity="0.800003" d="M172.694 110.731L179.753 127.451L186.85 91.0097L172.694 110.731Z" fill="white"/>
</g>
</g>
<defs>
<filter id="filter0_d" x="57.9119" y="13.892" width="214.4" height="212.595" filterUnits="userSpaceOnUse" color-interpolation-filters="sRGB">
<feFlood flood-opacity="0" result="BackgroundImageFix"/>
<feColorMatrix in="SourceAlpha" type="matrix" values="0 0 0 0 0 0 0 0 0 0 0 0 0 0 0 0 0 0 127 0"/>
<feOffset dy="19.2418"/>
<feGaussianBlur stdDeviation="18.63"/>
<feColorMatrix type="matrix" values="0 0 0 0 0.508333 0 0 0 0 0.617593 0 0 0 0 1 0 0 0 0.15 0"/>
<feBlend mode="normal" in2="BackgroundImageFix" result="effect1_dropShadow"/>
<feBlend mode="normal" in="SourceGraphic" in2="effect1_dropShadow" result="shape"/>
</filter>
<filter id="filter1_d" x="90.3614" y="30.2901" width="144.377" height="136.098" filterUnits="userSpaceOnUse" color-interpolation-filters="sRGB">
<feFlood flood-opacity="0" result="BackgroundImageFix"/>
<feColorMatrix in="SourceAlpha" type="matrix" values="0 0 0 0 0 0 0 0 0 0 0 0 0 0 0 0 0 0 127 0"/>
<feOffset dx="-0.801742" dy="1.60348"/>
<feGaussianBlur stdDeviation="2.00436"/>
<feColorMatrix type="matrix" values="0 0 0 0 0.236857 0 0 0 0 0.391758 0 0 0 0 0.692448 0 0 0 1 0"/>
<feBlend mode="normal" in2="BackgroundImageFix" result="effect1_dropShadow"/>
<feBlend mode="normal" in="SourceGraphic" in2="effect1_dropShadow" result="shape"/>
</filter>
<filter id="filter2_f" x="76.4158" y="19.6111" width="177.896" height="169.634" filterUnits="userSpaceOnUse" color-interpolation-filters="sRGB">
<feFlood flood-opacity="0" result="BackgroundImageFix"/>
<feBlend mode="normal" in="SourceGraphic" in2="BackgroundImageFix" result="shape"/>
<feGaussianBlur stdDeviation="9.63" result="effect1_foregroundBlur"/>
</filter>
<filter id="filter3_d" x="90.8653" y="36.6651" width="147.393" height="138.932" filterUnits="userSpaceOnUse" color-interpolation-filters="sRGB">
<feFlood flood-opacity="0" result="BackgroundImageFix"/>
<feColorMatrix in="SourceAlpha" type="matrix" values="0 0 0 0 0 0 0 0 0 0 0 0 0 0 0 0 0 0 127 0"/>
<feOffset dx="-0.801742" dy="1.60348"/>
<feGaussianBlur stdDeviation="2.00436"/>
<feColorMatrix type="matrix" values="0 0 0 0 0 0 0 0 0 0 0 0 0 0 0 0 0 0 0.2 0"/>
<feBlend mode="normal" in2="BackgroundImageFix" result="effect1_dropShadow"/>
<feBlend mode="normal" in="SourceGraphic" in2="effect1_dropShadow" result="shape"/>
</filter>
<linearGradient id="paint0_linear" x1="119.987" y1="41.7103" x2="194.411" y2="159.776" gradientUnits="userSpaceOnUse">
<stop stop-color="#3C64B1"/>
<stop offset="1" stop-color="#3C64B1"/>
</linearGradient>
<linearGradient id="paint1_linear" x1="121.042" y1="48.2874" x2="197.112" y2="168.966" gradientUnits="userSpaceOnUse">
<stop stop-color="#3C64B1"/>
<stop offset="1" stop-color="#3C64B1"/>
</linearGradient>
<linearGradient id="paint2_linear" x1="59.8759" y1="4.53177e-07" x2="77.9789" y2="159.765" gradientUnits="userSpaceOnUse">
<stop stop-color="#6985E8"/>
<stop offset="1" stop-color="#829DFF"/>
</linearGradient>
<linearGradient id="paint3_linear" x1="57.1065" y1="4.32216e-07" x2="74.3721" y2="152.376" gradientUnits="userSpaceOnUse">
<stop stop-color="#6985E8"/>
<stop offset="1" stop-color="#829DFF"/>
</linearGradient>
</defs>
</svg>
