<svg width="158" height="158" viewBox="0 0 158 158" fill="none" xmlns="http://www.w3.org/2000/svg">
<path d="M78.8997 157.799C122.475 157.799 157.799 122.475 157.799 78.8997C157.799 35.3246 122.475 0 78.8997 0C35.3246 0 0 35.3246 0 78.8997C0 122.475 35.3246 157.799 78.8997 157.799Z" fill="#6D07E6"/>
<path d="M111.096 77.5733C110.292 65.5232 99.4471 56.5526 87.1292 56.2848L76.8197 56.1509L71.9997 49.7242C70.2591 47.4481 66.9119 47.4481 65.0374 49.5903C65.0374 49.5903 52.5856 59.632 48.9706 72.8871L44.4184 72.7533C42.0083 72.7533 40.1339 74.6277 40 76.9038V80.9205C40 83.1967 41.8745 85.205 44.2845 85.205L49.3723 85.3389C52.4518 97.5229 64.368 107.699 64.368 107.699C66.1085 109.975 69.4558 109.975 71.3302 107.832L76.2842 101.54L82.577 101.673L87.397 108.1C89.1376 110.376 92.4848 110.376 94.3593 108.234L107.748 91.364H107.614C110.024 87.3473 111.497 82.6611 111.096 77.5733Z" stroke="white" stroke-width="3.5" stroke-miterlimit="10" stroke-linecap="round" stroke-linejoin="round"/>
<path d="M89.1382 64.8538L76.8203 64.5861" stroke="white" stroke-width="3.5" stroke-miterlimit="10" stroke-linecap="round" stroke-linejoin="round"/>
<path d="M65.1076 71.381C65.1236 70.3459 64.2374 69.4929 63.1283 69.4758C62.0193 69.4588 61.1073 70.2841 61.0913 71.3192C61.0754 72.3543 61.9616 73.2073 63.0706 73.2244C64.1797 73.2414 65.0917 72.4161 65.1076 71.381Z" stroke="white" stroke-width="3.5" stroke-miterlimit="10" stroke-linecap="round" stroke-linejoin="round"/>
<path d="M110.561 56.8204C114.31 56.8204 117.255 59.8998 117.121 63.5149C116.987 67.1299 114.042 70.0755 110.293 69.9416" stroke="white" stroke-width="3.5" stroke-miterlimit="10" stroke-linecap="round" stroke-linejoin="round"/>
<circle cx="20" cy="20" r="20" fill="#FFD371"/>
<path d="M20.6602 13.0781C21.3002 13.0781 21.8762 13.1709 22.3882 13.3565C22.9066 13.5357 23.3482 13.7885 23.713 14.1149C24.0778 14.4349 24.3562 14.8125 24.5482 15.2477C24.7466 15.6829 24.8458 16.1533 24.8458 16.6589C24.8458 17.1005 24.7946 17.4909 24.6922 17.8301C24.5962 18.1629 24.4522 18.4541 24.2602 18.7037C24.0746 18.9533 23.8442 19.1645 23.569 19.3373C23.3002 19.5101 22.993 19.6541 22.6474 19.7693C23.4794 20.0317 24.1002 20.4317 24.5098 20.9693C24.9194 21.5069 25.1242 22.1821 25.1242 22.9949C25.1242 23.6861 24.9962 24.2973 24.7402 24.8285C24.4842 25.3597 24.1386 25.8077 23.7034 26.1725C23.2682 26.5309 22.7626 26.8029 22.1866 26.9885C21.617 27.1741 21.0122 27.2669 20.3722 27.2669C19.6746 27.2669 19.0666 27.1869 18.5482 27.0269C18.0298 26.8669 17.5786 26.6301 17.1946 26.3165C16.8106 26.0029 16.4842 25.6189 16.2154 25.1645C15.9466 24.7101 15.7162 24.1853 15.5242 23.5901L16.5706 23.1581C16.7498 23.0813 16.9322 23.0429 17.1178 23.0429C17.2842 23.0429 17.4314 23.0781 17.5594 23.1485C17.6938 23.2189 17.7962 23.3213 17.8666 23.4557C17.9818 23.6797 18.1066 23.9005 18.241 24.1181C18.3818 24.3357 18.5482 24.5309 18.7402 24.7037C18.9322 24.8701 19.1562 25.0077 19.4122 25.1165C19.6746 25.2189 19.985 25.2701 20.3434 25.2701C20.7466 25.2701 21.0986 25.2061 21.3994 25.0781C21.7002 24.9437 21.9498 24.7709 22.1482 24.5597C22.353 24.3485 22.5034 24.1149 22.5994 23.8589C22.7018 23.5965 22.753 23.3341 22.753 23.0717C22.753 22.7389 22.7178 22.4381 22.6474 22.1693C22.577 21.8941 22.4298 21.6605 22.2058 21.4685C21.9818 21.2765 21.6586 21.1261 21.2362 21.0173C20.8202 20.9085 20.2602 20.8541 19.5562 20.8541V19.1645C20.1386 19.1581 20.6218 19.1037 21.0058 19.0013C21.3898 18.8989 21.6938 18.7581 21.9178 18.5789C22.1482 18.3933 22.3082 18.1725 22.3978 17.9165C22.4874 17.6605 22.5322 17.3789 22.5322 17.0717C22.5322 16.4125 22.353 15.9165 21.9946 15.5837C21.6362 15.2445 21.1466 15.0749 20.5258 15.0749C19.9626 15.0749 19.4954 15.2253 19.1242 15.5261C18.753 15.8205 18.4938 16.2013 18.3466 16.6685C18.2698 16.9117 18.1642 17.0877 18.0298 17.1965C17.8954 17.2989 17.7194 17.3501 17.5018 17.3501C17.3994 17.3501 17.2906 17.3405 17.1754 17.3213L15.9274 17.1005C16.0234 16.4349 16.209 15.8525 16.4842 15.3533C16.7594 14.8477 17.1018 14.4285 17.5114 14.0957C17.9274 13.7565 18.401 13.5037 18.9322 13.3373C19.4698 13.1645 20.0458 13.0781 20.6602 13.0781Z" fill="#373744"/>
</svg>
