<svg width="184" height="36" viewBox="0 0 184 36" fill="none" xmlns="http://www.w3.org/2000/svg">
<mask id="mask0" mask-type="alpha" maskUnits="userSpaceOnUse" x="0" y="0" width="184" height="36">
<rect width="184" height="36" fill="#C4C4C4"/>
</mask>
<g mask="url(#mask0)">
<path fill-rule="evenodd" clip-rule="evenodd" d="M18.5913 10.9758C17.5059 10.9758 16.5457 10.5167 15.8359 9.89062V35.1845H21.3467V9.89062C20.6369 10.5167 19.6767 10.9758 18.5913 10.9758Z" fill="#93A8C3"/>
<path d="M18.5893 8.16198C20.2955 8.16198 21.6787 6.7511 21.6787 5.01068C21.6787 3.27026 20.2955 1.85938 18.5893 1.85938C16.8831 1.85938 15.5 3.27026 15.5 5.01068C15.5 6.7511 16.8831 8.16198 18.5893 8.16198Z" fill="#93A8C3"/>
<path fill-rule="evenodd" clip-rule="evenodd" d="M25.8945 9.68348H31.1548V13.3983L31.28 13.5235C32.115 12.1043 33.2004 11.0191 34.5572 10.1843C35.914 9.34956 37.4378 8.97391 39.0451 8.97391C41.8005 8.97391 43.9922 9.68348 45.5369 11.1652C47.1442 12.5843 47.9165 14.7548 47.9165 17.6557V35.1235H42.4058V19.1165C42.3432 17.1339 41.8839 15.6522 41.1116 14.7548C40.3393 13.8574 39.1286 13.3983 37.4587 13.3983C36.4985 13.3983 35.6635 13.5861 34.9538 13.92C34.1815 14.233 33.597 14.7548 33.096 15.3391C32.5951 15.9235 32.1985 16.6957 31.8645 17.4678C31.5514 18.3026 31.4052 19.1374 31.4052 20.0974V35.1235H25.8945V9.68348ZM49.7117 9.68348H53.8238V7.57565C53.8238 5.9687 54.0117 4.69565 54.4083 3.65217C54.784 2.62957 55.3059 1.85739 55.953 1.33565C56.6001 0.813913 57.3724 0.438261 58.1447 0.250435C58.9797 0.0626087 59.8146 0 60.7122 0C62.5074 0 63.8016 0.125217 64.5739 0.313043V4.67478C64.1982 4.54957 63.8642 4.48696 63.4258 4.48696C63.1753 4.48696 62.6535 4.42435 62.1316 4.42435C61.3593 4.42435 60.7122 4.61217 60.2112 4.94609C59.6894 5.32174 59.4389 6.0313 59.4389 7.05391V9.68348H64.1355V13.8574H59.4389V35.1026H53.9282V13.8574H49.816L49.7117 9.68348ZM77.4531 35.8122C75.4701 35.8122 73.6749 35.4991 72.1302 34.7896C70.5856 34.1426 69.2496 33.1826 68.1433 32.0348C67.0579 30.887 66.2229 29.4678 65.6385 27.7983C65.054 26.1287 64.8035 24.3339 64.8035 22.4139C64.8035 20.4939 65.054 18.6991 65.6385 17.0296C66.2229 15.36 67.0579 13.9409 68.1433 12.793C69.2288 11.6452 70.523 10.6852 72.1302 10.0383C73.6749 9.3913 75.4701 9.01565 77.4531 9.01565C79.4361 9.01565 81.2313 9.3287 82.7759 10.0383C84.3206 10.6852 85.6565 11.6452 86.7629 12.793C87.8692 13.9409 88.6833 15.36 89.2677 17.0296C89.8522 18.6991 90.1027 20.4313 90.1027 22.4139C90.1027 24.3965 89.8522 26.1913 89.2677 27.7983C88.6833 29.4678 87.8483 30.887 86.7629 32.0348C85.6774 33.1826 84.3206 34.1426 82.7759 34.7896C81.2313 35.4991 79.4361 35.8122 77.4531 35.8122ZM77.4531 31.3878C78.6638 31.3878 79.7701 31.1374 80.6677 30.6157C81.5653 30.0939 82.3376 29.4052 82.9221 28.5704C83.5274 27.6939 83.9658 26.713 84.2162 25.6904C84.4667 24.6052 84.592 23.4991 84.592 22.4139C84.592 21.3287 84.4667 20.2226 84.2162 19.1374C83.9658 18.0522 83.5065 17.0922 82.9221 16.2574C82.3376 15.4226 81.5653 14.713 80.6677 14.2122C79.7701 13.6904 78.6847 13.44 77.4531 13.44C76.2424 13.44 75.1361 13.6904 74.2385 14.2122C73.3409 14.7339 72.5686 15.4226 71.9841 16.2574C71.3997 17.0922 70.9613 18.0522 70.6899 19.1374C70.4186 20.2226 70.3142 21.3287 70.3142 22.4139C70.3142 23.4991 70.4395 24.6052 70.6899 25.6904C70.9404 26.7757 71.3997 27.7357 71.9841 28.5704C72.5686 29.4052 73.3409 30.1148 74.2385 30.6157C75.1361 31.1374 76.2215 31.3878 77.4531 31.3878ZM93.359 0H98.8697V12.96H98.995C99.3707 12.313 99.8299 11.8122 100.414 11.2904C100.999 10.7687 101.562 10.393 102.21 9.99652C102.857 9.68348 103.566 9.41217 104.255 9.22435C104.965 9.03652 105.737 8.97391 106.447 8.97391C108.43 8.97391 110.1 9.28696 111.582 9.99652C113.064 10.7061 114.275 11.6661 115.235 12.8765C116.195 14.087 116.905 15.5687 117.427 17.1757C117.948 18.8452 118.136 20.5774 118.136 22.4348C118.136 24.167 117.948 25.7739 117.489 27.3809C117.03 28.9878 116.404 30.407 115.506 31.6174C114.609 32.8278 113.523 33.8713 112.166 34.56C110.81 35.3322 109.223 35.6452 107.345 35.6452C106.51 35.6452 105.675 35.5826 104.777 35.4574C103.942 35.3322 103.107 35.1443 102.335 34.8104C101.562 34.4974 100.853 34.0383 100.227 33.5165C99.5794 32.9948 99.0785 32.3061 98.6192 31.4713H98.5775V34.9356H93.3173L93.359 0ZM112.626 22.4557C112.626 21.3078 112.5 20.2017 112.166 19.1165C111.853 18.0313 111.457 17.0713 110.872 16.2365C110.288 15.4017 109.578 14.6922 108.68 14.2539C107.783 13.7322 106.823 13.4817 105.654 13.4817C103.337 13.4817 101.542 14.3165 100.394 15.9235C99.2455 17.593 98.5984 19.7843 98.5984 22.4765C98.5984 23.7704 98.7236 24.9183 99.0576 26.0661C99.3707 27.1513 99.8299 28.1113 100.477 28.8835C101.124 29.6557 101.834 30.3026 102.669 30.7409C103.504 31.2 104.527 31.4504 105.612 31.4504C106.906 31.4504 107.929 31.2 108.827 30.6783C109.724 30.1565 110.434 29.4678 111.018 28.633C111.603 27.7983 111.979 26.8383 112.229 25.8157C112.5 24.647 112.626 23.5617 112.626 22.4557ZM142.287 29.4678C142.287 30.1774 142.35 30.6157 142.538 30.9496C142.726 31.2626 143.06 31.4087 143.561 31.4087H144.145C144.396 31.4087 144.667 31.3461 144.918 31.2835V35.207C144.73 35.2696 144.458 35.3322 144.145 35.3948C143.832 35.4574 143.498 35.52 143.185 35.5826C142.872 35.6452 142.538 35.7078 142.225 35.7078C141.912 35.7704 141.64 35.7704 141.39 35.7704C140.242 35.7704 139.344 35.52 138.572 35.0609C137.8 34.6017 137.361 33.767 137.09 32.6191C136.004 33.7043 134.648 34.4765 133.04 34.9983C131.433 35.52 129.888 35.7078 128.427 35.7078C127.279 35.7078 126.235 35.5826 125.15 35.2487C124.127 34.9356 123.23 34.4765 122.395 33.8922C121.622 33.3078 120.975 32.5357 120.537 31.5757C120.078 30.6157 119.827 29.5304 119.827 28.2991C119.827 26.6922 120.078 25.4817 120.662 24.4383C121.247 23.4783 121.956 22.7061 122.916 22.1217C123.814 21.5374 124.837 21.1617 126.006 20.9113C127.154 20.6609 128.323 20.4522 129.471 20.327C130.494 20.1391 131.391 20.0139 132.351 19.8678C133.249 19.8052 134.084 19.68 134.731 19.4087C135.441 19.2209 135.942 18.887 136.401 18.5113C136.777 18.1357 136.985 17.4887 136.985 16.6539C136.985 15.9443 136.798 15.36 136.464 14.8591C136.151 14.4 135.691 14.0243 135.169 13.8365C134.648 13.5861 134.147 13.4609 133.5 13.3148C132.852 13.2522 132.289 13.1896 131.767 13.1896C130.222 13.1896 128.949 13.5026 127.905 14.1496C126.883 14.7965 126.361 15.8191 126.235 17.2383H120.725C120.85 15.5687 121.247 14.2122 121.873 13.127C122.582 12.0417 123.417 11.207 124.44 10.4974C125.463 9.85043 126.695 9.41217 128.031 9.14087C129.387 8.89043 130.723 8.76522 132.08 8.76522C133.291 8.76522 134.522 8.89043 135.733 9.14087C136.944 9.3913 137.987 9.85043 138.948 10.4348C139.908 11.0191 140.68 11.7913 141.265 12.7513C141.849 13.7113 142.162 14.7965 142.162 16.153V29.447L142.287 29.4678ZM136.756 22.393C135.921 22.9774 134.898 23.2904 133.667 23.4157C132.435 23.5409 131.224 23.6661 130.014 23.9374C129.429 24.0626 128.866 24.1878 128.344 24.3965C127.759 24.5843 127.321 24.8557 126.862 25.1687C126.402 25.4817 126.089 25.8783 125.901 26.3791C125.651 26.9009 125.526 27.527 125.526 28.2365C125.526 28.8835 125.714 29.3843 126.048 29.8435C126.423 30.3026 126.82 30.6157 127.342 30.8661C127.864 31.1165 128.365 31.3252 129.012 31.3878C129.596 31.513 130.16 31.513 130.619 31.513C131.266 31.513 131.913 31.4504 132.602 31.2626C133.312 31.0748 134.021 30.8035 134.585 30.4278C135.232 30.0522 135.733 29.5304 136.192 28.9461C136.652 28.3617 136.839 27.5896 136.839 26.6922V22.393H136.756ZM151.075 23.8748C151.075 24.8348 151.201 25.7948 151.451 26.6922C151.702 27.5896 152.161 28.4243 152.662 29.1339C153.246 29.8435 153.872 30.3443 154.707 30.8035C155.542 31.1791 156.565 31.4504 157.734 31.4504C159.341 31.4504 160.615 31.1374 161.658 30.4278C162.619 29.7183 163.391 28.6957 163.85 27.2765H169.11C168.797 28.633 168.338 29.9061 167.628 30.9913C166.919 32.0765 166.084 32.9739 165.061 33.7461C164.038 34.4557 162.953 35.04 161.721 35.4156C160.51 35.7913 159.154 36 157.797 36C155.814 36 154.081 35.687 152.537 35.04C150.992 34.393 149.719 33.433 148.675 32.2852C147.652 31.1374 146.817 29.7183 146.295 28.0487C145.773 26.3791 145.523 24.5843 145.523 22.6643C145.523 20.8696 145.773 19.1374 146.358 17.5304C146.942 15.9235 147.715 14.4417 148.8 13.2313C149.823 12.0209 151.117 11.04 152.578 10.2887C154.102 9.55826 155.772 9.18261 157.692 9.18261C159.675 9.18261 161.408 9.64174 163.015 10.4765C164.56 11.3113 165.896 12.3965 166.94 13.8157C167.962 15.1722 168.735 16.7583 169.194 18.5739C169.653 20.3687 169.778 22.2261 169.57 24.0835H151.075V23.8748ZM163.975 20.16C163.913 19.2626 163.725 18.4278 163.391 17.593C163.078 16.7583 162.681 16.0487 162.097 15.4852C161.575 14.9009 160.949 14.4 160.176 14.0035C159.404 13.6278 158.569 13.4191 157.609 13.4191C156.649 13.4191 155.751 13.607 154.979 13.9409C154.206 14.2539 153.497 14.7757 152.933 15.36C152.37 15.9443 151.91 16.7165 151.576 17.4678C151.263 18.3026 151.055 19.2 150.992 20.0974L163.975 20.16Z" fill="#93A8C3"/>
</g>
</svg>
