<svg width="185" height="34" viewBox="0 0 185 34" fill="none" xmlns="http://www.w3.org/2000/svg">
<mask id="mask0" mask-type="alpha" maskUnits="userSpaceOnUse" x="0" y="0" width="185" height="34">
<rect x="0.5" width="184" height="34" fill="#C4C4C4"/>
</mask>
<g mask="url(#mask0)">
<path fill-rule="evenodd" clip-rule="evenodd" d="M0.5 10.0094H12.164V12.2381H9.60691V23.1692H17.7269V18.7968H20.0148V25.2918H0.634585L0.657015 23.3178H3.52816V12.3654H0.589723L0.5 10.0094ZM34.3032 18.4572L31.634 12.8112L29.0096 18.436H34.3032V18.4572ZM91.771 18.4572L89.1017 12.8112L86.4773 18.436H91.771V18.4572ZM56.7565 9.92451H65.1456L74.9703 22.4264V12.2593H72.2562V9.94573H79.95V12.2805H77.5947V25.1857H69.9907L61.938 14.7852V23.0631H64.4054V25.2281H56.9359V23.0844H59.4482V12.3442H56.7789V9.92451H56.7565ZM161.307 10.1368H169.696L179.52 22.6386V12.4716H176.806V10.158H184.5V12.4928H182.145V25.3979H174.541L166.488 14.9974V23.2754H168.955V25.4404H161.464V23.2966H163.976V12.5565H161.307V10.1368ZM121.537 10.3278V15.6766H119.181C119.181 15.6766 118.284 11.7075 114.538 11.856C110.792 12.0046 109.11 14.8276 109.2 17.5657C109.267 20.3038 110.882 23.3815 114.628 23.3815C118.374 23.3815 119.854 20.7283 119.854 20.7283L121.896 22.2566C121.896 22.2566 119.585 25.9286 113.17 25.9286C106.755 25.9286 102.201 22.5113 102.201 17.5869C102.201 12.6838 107.203 9.5 112.093 9.5C116.983 9.5 118.531 10.9433 118.531 10.9433C118.531 10.9433 118.755 9.96695 121.537 10.3278ZM124.004 9.98819H135.78V12.2593H133.066V23.0844H135.78V25.2281H124.049V23.0631H126.763V12.2169H124.004V9.98819ZM144.012 17.6506C144.012 24.1456 148.656 23.7211 148.656 23.7211C148.656 23.7211 153.321 23.9334 153.321 17.7355C153.321 11.5164 148.813 12.0895 148.813 12.0895C148.813 12.0895 144.012 11.1344 144.012 17.6506ZM81.8341 23.1056L88.0026 9.8396H93.9468L99.9582 23.0207H102.897V25.2281H91.0308V23.0844H93.7449L92.7131 20.4312H85.6025L84.2791 23.148H86.7914V25.2281H79.277V23.1056H81.8341ZM148.813 9.56367C148.813 9.56367 160.14 9.56367 160.14 18.0114C160.14 26.4592 148.499 25.9074 148.499 25.9074C148.499 25.9074 137.149 26.7351 137.149 17.6506C137.149 9.20283 148.813 9.56367 148.813 9.56367ZM24.3664 23.1056L30.5349 9.8396H36.479L42.4905 23.0207H45.4289V25.2281H33.563V23.0844H36.2772L35.2453 20.4312H28.1348L26.8113 23.148H29.3236V25.2281H21.8093V23.1056H24.3664Z" fill="#93A8C3"/>
</g>
</svg>
